<svg width="80" height="80" viewBox="0 0 80 80" fill="none" xmlns="http://www.w3.org/2000/svg">
<path d="M6.66675 30C9.31891 30 11.8625 31.0535 13.7378 32.9289C15.6132 34.8043 16.6667 37.3478 16.6667 40C16.6667 42.6521 15.6132 45.1957 13.7378 47.071C11.8625 48.9464 9.31891 50 6.66675 50V56.6666C6.66675 58.4347 7.36913 60.1304 8.61937 61.3807C9.86961 62.6309 11.5653 63.3333 13.3334 63.3333H66.6667C68.4349 63.3333 70.1305 62.6309 71.3808 61.3807C72.631 60.1304 73.3334 58.4347 73.3334 56.6666V50C70.6812 50 68.1377 48.9464 66.2623 47.071C64.387 45.1957 63.3334 42.6521 63.3334 40C63.3334 37.3478 64.387 34.8043 66.2623 32.9289C68.1377 31.0535 70.6812 30 73.3334 30V23.3333C73.3334 21.5652 72.631 19.8695 71.3808 18.6192C70.1305 17.369 68.4349 16.6666 66.6667 16.6666H13.3334C11.5653 16.6666 9.86961 17.369 8.61937 18.6192C7.36913 19.8695 6.66675 21.5652 6.66675 23.3333V30Z" stroke="#163156" stroke-width="6.66667" stroke-linecap="round" stroke-linejoin="round"/>
<path d="M30 40L36.6667 46.6667L50 33.3334" stroke="#163156" stroke-width="6.66667" stroke-linecap="round" stroke-linejoin="round"/>
</svg>
