<svg width="80" height="80" viewBox="0 0 80 80" fill="none" xmlns="http://www.w3.org/2000/svg">
<path d="M60 26.6666C60 38.71 47.1033 51.43 42.0233 55.9833C41.4422 56.4272 40.7312 56.6676 40 56.6676C39.2688 56.6676 38.5578 56.4272 37.9767 55.9833C32.9 51.43 20 38.71 20 26.6666C20 21.3623 22.1071 16.2752 25.8579 12.5245C29.6086 8.77376 34.6957 6.66663 40 6.66663C45.3043 6.66663 50.3914 8.77376 54.1421 12.5245C57.8929 16.2752 60 21.3623 60 26.6666Z" stroke="#163156" stroke-width="6.66667" stroke-linecap="round" stroke-linejoin="round"/>
<path d="M39.9999 33.3333C43.6818 33.3333 46.6666 30.3486 46.6666 26.6667C46.6666 22.9848 43.6818 20 39.9999 20C36.318 20 33.3333 22.9848 33.3333 26.6667C33.3333 30.3486 36.318 33.3333 39.9999 33.3333Z" stroke="#163156" stroke-width="6.66667" stroke-linecap="round" stroke-linejoin="round"/>
<path d="M29.0468 46.6666H16.6801C15.9812 46.6669 15.3001 46.8869 14.733 47.2954C14.166 47.704 13.7417 48.2804 13.5201 48.9433L6.84013 68.9433C6.67266 69.4443 6.62668 69.978 6.70598 70.5003C6.78527 71.0226 6.98757 71.5186 7.2962 71.9473C7.60482 72.3761 8.01094 72.7253 8.48106 72.9663C8.95118 73.2073 9.47185 73.3331 10.0001 73.3333H70.0001C70.528 73.3329 71.0483 73.2071 71.5181 72.9663C71.9878 72.7255 72.3937 72.3766 72.7022 71.9483C73.0108 71.52 73.2132 71.0245 73.2928 70.5026C73.3724 69.9808 73.3269 69.4475 73.1601 68.9466L66.4935 48.9466C66.2723 48.2826 65.8477 47.705 65.28 47.2958C64.7122 46.8866 64.03 46.6665 63.3301 46.6666H50.9568" stroke="#163156" stroke-width="6.66667" stroke-linecap="round" stroke-linejoin="round"/>
</svg>
