<svg width="80" height="80" viewBox="0 0 80 80" fill="none" xmlns="http://www.w3.org/2000/svg">
<path d="M40.0001 73.3333C58.4096 73.3333 73.3334 58.4095 73.3334 40C73.3334 21.5905 58.4096 6.66663 40.0001 6.66663C21.5906 6.66663 6.66675 21.5905 6.66675 40C6.66675 58.4095 21.5906 73.3333 40.0001 73.3333Z" stroke="#163156" stroke-width="6.66667" stroke-linecap="round" stroke-linejoin="round"/>
<path d="M53.3334 26.6666H33.3334C31.5653 26.6666 29.8696 27.369 28.6194 28.6192C27.3691 29.8695 26.6667 31.5652 26.6667 33.3333C26.6667 35.1014 27.3691 36.7971 28.6194 38.0473C29.8696 39.2976 31.5653 40 33.3334 40H46.6667C48.4349 40 50.1305 40.7023 51.3808 41.9526C52.631 43.2028 53.3334 44.8985 53.3334 46.6666C53.3334 48.4347 52.631 50.1304 51.3808 51.3807C50.1305 52.6309 48.4349 53.3333 46.6667 53.3333H26.6667" stroke="#163156" stroke-width="6.66667" stroke-linecap="round" stroke-linejoin="round"/>
<path d="M40 60V20" stroke="#163156" stroke-width="6.66667" stroke-linecap="round" stroke-linejoin="round"/>
</svg>
