<svg width="80" height="80" viewBox="0 0 80 80" fill="none" xmlns="http://www.w3.org/2000/svg">
<path d="M12.834 28.7332C12.3474 26.5416 12.4222 24.2627 13.0512 22.1077C13.6802 19.9527 14.8431 17.9914 16.4322 16.4056C18.0213 14.8199 19.985 13.661 22.1413 13.0365C24.2977 12.412 26.5768 12.3421 28.7673 12.8332C29.973 10.9475 31.634 9.39574 33.5971 8.32083C35.5603 7.24592 37.7625 6.6825 40.0006 6.6825C42.2388 6.6825 44.441 7.24592 46.4041 8.32083C48.3673 9.39574 50.0283 10.9475 51.234 12.8332C53.4279 12.34 55.7109 12.4096 57.8706 13.0356C60.0304 13.6616 61.9968 14.8237 63.5868 16.4137C65.1768 18.0038 66.3389 19.9701 66.9649 22.1299C67.5909 24.2896 67.6606 26.5727 67.1673 28.7665C69.053 29.9722 70.6048 31.6332 71.6797 33.5964C72.7546 35.5595 73.318 37.7617 73.318 39.9999C73.318 42.2381 72.7546 44.4402 71.6797 46.4034C70.6048 48.3665 69.053 50.0275 67.1673 51.2332C67.6584 53.4238 67.5885 55.7029 66.964 57.8592C66.3395 60.0155 65.1807 61.9792 63.5949 63.5683C62.0092 65.1574 60.0479 66.3203 57.8928 66.9494C55.7378 67.5784 53.4589 67.6531 51.2673 67.1665C50.0632 69.0594 48.4009 70.6179 46.4344 71.6976C44.4679 72.7773 42.2607 73.3434 40.0173 73.3434C37.7739 73.3434 35.5667 72.7773 33.6002 71.6976C31.6337 70.6179 29.9714 69.0594 28.7673 67.1665C26.5768 67.6577 24.2977 67.5877 22.1413 66.9632C19.985 66.3387 18.0213 65.1799 16.4322 63.5941C14.8431 62.0084 13.6802 60.0471 13.0512 57.8921C12.4222 55.7371 12.3474 53.4581 12.834 51.2665C10.9338 50.064 9.36869 48.4005 8.28414 46.4306C7.19959 44.4607 6.63086 42.2486 6.63086 39.9999C6.63086 37.7512 7.19959 35.539 8.28414 33.5692C9.36869 31.5993 10.9338 29.9357 12.834 28.7332Z" stroke="#163156" stroke-width="6.66667" stroke-linecap="round" stroke-linejoin="round"/>
<path d="M30 40L36.6667 46.6667L50 33.3334" stroke="#163156" stroke-width="6.66667" stroke-linecap="round" stroke-linejoin="round"/>
</svg>
